<svg xmlns="http://www.w3.org/2000/svg" xmlns:xlink="http://www.w3.org/1999/xlink" width="500" zoomAndPan="magnify" viewBox="0 0 375 374.999991" height="500" preserveAspectRatio="xMidYMid meet" version="1.0"><defs><clipPath id="a453fce644"><path d="M 226 6.371094 L 233 6.371094 L 233 13 L 226 13 Z M 226 6.371094 " clip-rule="nonzero"/></clipPath><clipPath id="4d1f5b5d7e"><path d="M 8.019531 7 L 365 7 L 365 368.621094 L 8.019531 368.621094 Z M 8.019531 7 " clip-rule="nonzero"/></clipPath></defs><rect x="-37.5" width="450" fill="#ffffff" y="-37.499999" height="449.999989" fill-opacity="1"/><rect x="-37.5" width="450" fill="#ffffff" y="-37.499999" height="449.999989" fill-opacity="1"/><path fill="#1086f4" d="M 337.847656 288.828125 C 337.847656 289.289062 337.761719 289.734375 337.582031 290.164062 C 337.40625 290.589844 337.15625 290.96875 336.828125 291.292969 C 336.5 291.621094 336.125 291.871094 335.695312 292.050781 C 335.269531 292.226562 334.824219 292.316406 334.363281 292.316406 C 333.898438 292.316406 333.453125 292.226562 333.027344 292.050781 C 332.597656 291.871094 332.222656 291.621094 331.894531 291.292969 C 331.566406 290.96875 331.316406 290.589844 331.140625 290.164062 C 330.960938 289.734375 330.875 289.289062 330.875 288.828125 C 330.875 288.367188 330.960938 287.921875 331.140625 287.492188 C 331.316406 287.066406 331.566406 286.6875 331.894531 286.363281 C 332.222656 286.035156 332.597656 285.78125 333.027344 285.605469 C 333.453125 285.429688 333.898438 285.339844 334.363281 285.339844 C 334.824219 285.339844 335.269531 285.429688 335.695312 285.605469 C 336.125 285.78125 336.5 286.035156 336.828125 286.363281 C 337.15625 286.6875 337.40625 287.066406 337.582031 287.492188 C 337.761719 287.921875 337.847656 288.367188 337.847656 288.828125 Z M 337.847656 288.828125 " fill-opacity="1" fill-rule="nonzero"/><path fill="#1086f4" d="M 292.628906 328.144531 C 292.816406 328.332031 292.988281 328.539062 293.136719 328.761719 C 293.285156 328.988281 293.414062 329.222656 293.515625 329.472656 C 293.617188 329.71875 293.695312 329.976562 293.75 330.238281 C 293.800781 330.503906 293.828125 330.769531 293.828125 331.035156 C 293.828125 331.304688 293.800781 331.570312 293.75 331.835938 C 293.695312 332.097656 293.617188 332.355469 293.515625 332.601562 C 293.414062 332.851562 293.285156 333.085938 293.136719 333.3125 C 292.988281 333.535156 292.820312 333.742188 292.628906 333.929688 C 292.4375 334.121094 292.230469 334.289062 292.007812 334.441406 C 291.785156 334.589844 291.546875 334.714844 291.300781 334.820312 C 291.050781 334.921875 290.796875 335 290.53125 335.050781 C 290.269531 335.105469 290.003906 335.128906 289.734375 335.128906 C 289.464844 335.128906 289.199219 335.105469 288.9375 335.050781 C 288.671875 335 288.417969 334.921875 288.167969 334.820312 C 287.917969 334.714844 287.683594 334.589844 287.460938 334.441406 C 287.238281 334.289062 287.03125 334.121094 286.839844 333.929688 C 286.648438 333.742188 286.480469 333.535156 286.332031 333.3125 C 286.183594 333.085938 286.054688 332.851562 285.953125 332.601562 C 285.851562 332.355469 285.773438 332.097656 285.71875 331.835938 C 285.667969 331.570312 285.640625 331.304688 285.640625 331.035156 C 285.640625 330.769531 285.667969 330.503906 285.71875 330.238281 C 285.773438 329.976562 285.851562 329.71875 285.953125 329.472656 C 286.054688 329.222656 286.183594 328.988281 286.332031 328.761719 C 286.480469 328.539062 286.648438 328.332031 286.839844 328.144531 C 287.03125 327.953125 287.238281 327.785156 287.460938 327.632812 C 287.683594 327.484375 287.917969 327.359375 288.167969 327.253906 C 288.417969 327.152344 288.671875 327.074219 288.9375 327.023438 C 289.199219 326.96875 289.464844 326.945312 289.734375 326.945312 C 290.003906 326.945312 290.269531 326.96875 290.53125 327.023438 C 290.796875 327.074219 291.050781 327.152344 291.300781 327.253906 C 291.546875 327.359375 291.785156 327.484375 292.007812 327.632812 C 292.230469 327.785156 292.4375 327.953125 292.628906 328.144531 Z M 292.628906 328.144531 " fill-opacity="1" fill-rule="nonzero"/><path fill="#1086f4" d="M 257.203125 310.789062 C 257.320312 311.28125 257.339844 311.78125 257.257812 312.285156 C 257.175781 312.789062 257 313.253906 256.730469 313.6875 C 256.464844 314.121094 256.125 314.488281 255.710938 314.785156 C 255.296875 315.082031 254.84375 315.289062 254.347656 315.40625 C 253.851562 315.523438 253.351562 315.542969 252.851562 315.460938 C 252.347656 315.378906 251.878906 315.203125 251.445312 314.9375 C 251.011719 314.667969 250.648438 314.328125 250.347656 313.914062 C 250.050781 313.5 249.84375 313.046875 249.726562 312.550781 C 249.609375 312.054688 249.59375 311.558594 249.675781 311.054688 C 249.753906 310.550781 249.929688 310.082031 250.199219 309.648438 C 250.464844 309.21875 250.804688 308.851562 251.21875 308.554688 C 251.632812 308.253906 252.085938 308.046875 252.582031 307.929688 C 253.078125 307.816406 253.578125 307.796875 254.082031 307.878906 C 254.582031 307.960938 255.050781 308.132812 255.484375 308.402344 C 255.917969 308.671875 256.285156 309.011719 256.582031 309.425781 C 256.878906 309.835938 257.085938 310.292969 257.203125 310.789062 Z M 257.203125 310.789062 " fill-opacity="1" fill-rule="nonzero"/><path fill="#1086f4" d="M 201.175781 340.328125 C 201.175781 340.785156 201.089844 341.222656 200.914062 341.644531 C 200.738281 342.066406 200.492188 342.441406 200.167969 342.761719 C 199.84375 343.085938 199.472656 343.335938 199.050781 343.511719 C 198.628906 343.683594 198.1875 343.773438 197.730469 343.773438 C 197.277344 343.773438 196.835938 343.683594 196.414062 343.511719 C 195.992188 343.335938 195.621094 343.085938 195.296875 342.761719 C 194.972656 342.441406 194.726562 342.066406 194.550781 341.644531 C 194.375 341.222656 194.289062 340.785156 194.289062 340.328125 C 194.289062 339.871094 194.375 339.429688 194.550781 339.007812 C 194.726562 338.585938 194.972656 338.214844 195.296875 337.890625 C 195.621094 337.570312 195.992188 337.320312 196.414062 337.144531 C 196.835938 336.96875 197.277344 336.882812 197.730469 336.882812 C 198.1875 336.882812 198.628906 336.96875 199.050781 337.144531 C 199.472656 337.320312 199.84375 337.570312 200.167969 337.890625 C 200.492188 338.214844 200.738281 338.585938 200.914062 339.007812 C 201.089844 339.429688 201.175781 339.871094 201.175781 340.328125 Z M 201.175781 340.328125 " fill-opacity="1" fill-rule="nonzero"/><path fill="#1086f4" d="M 234.910156 253.828125 C 235.175781 253.941406 235.429688 254.074219 235.667969 254.234375 C 235.90625 254.394531 236.128906 254.574219 236.332031 254.777344 C 236.535156 254.984375 236.714844 255.203125 236.875 255.441406 C 237.035156 255.683594 237.171875 255.933594 237.28125 256.199219 C 237.390625 256.464844 237.472656 256.742188 237.53125 257.023438 C 237.585938 257.304688 237.613281 257.589844 237.613281 257.878906 C 237.613281 258.164062 237.585938 258.449219 237.53125 258.730469 C 237.472656 259.015625 237.390625 259.289062 237.28125 259.554688 C 237.171875 259.820312 237.035156 260.070312 236.875 260.3125 C 236.714844 260.550781 236.535156 260.773438 236.332031 260.976562 C 236.128906 261.179688 235.90625 261.359375 235.667969 261.519531 C 235.429688 261.679688 235.175781 261.816406 234.910156 261.925781 C 234.644531 262.035156 234.371094 262.117188 234.089844 262.175781 C 233.804688 262.230469 233.519531 262.257812 233.234375 262.257812 C 232.945312 262.257812 232.660156 262.230469 232.378906 262.175781 C 232.097656 262.117188 231.824219 262.035156 231.558594 261.925781 C 231.292969 261.816406 231.039062 261.679688 230.800781 261.519531 C 230.558594 261.359375 230.339844 261.179688 230.136719 260.976562 C 229.933594 260.773438 229.75 260.550781 229.589844 260.3125 C 229.429688 260.070312 229.296875 259.820312 229.1875 259.554688 C 229.074219 259.289062 228.992188 259.015625 228.9375 258.730469 C 228.878906 258.449219 228.851562 258.164062 228.851562 257.878906 C 228.851562 257.589844 228.878906 257.304688 228.9375 257.023438 C 228.992188 256.742188 229.074219 256.464844 229.1875 256.199219 C 229.296875 255.933594 229.429688 255.683594 229.589844 255.441406 C 229.75 255.203125 229.933594 254.984375 230.136719 254.777344 C 230.339844 254.574219 230.558594 254.394531 230.800781 254.234375 C 231.039062 254.074219 231.292969 253.941406 231.558594 253.828125 C 231.824219 253.71875 232.097656 253.636719 232.378906 253.582031 C 232.660156 253.523438 232.945312 253.496094 233.234375 253.496094 C 233.519531 253.496094 233.804688 253.523438 234.089844 253.582031 C 234.371094 253.636719 234.644531 253.71875 234.910156 253.828125 Z M 234.910156 253.828125 " fill-opacity="1" fill-rule="nonzero"/><path fill="#1086f4" d="M 326.816406 58.773438 C 326.816406 59.171875 326.742188 59.554688 326.589844 59.917969 C 326.4375 60.285156 326.222656 60.609375 325.941406 60.890625 C 325.660156 61.171875 325.335938 61.386719 324.972656 61.539062 C 324.605469 61.691406 324.222656 61.765625 323.828125 61.765625 C 323.429688 61.765625 323.046875 61.691406 322.683594 61.539062 C 322.316406 61.386719 321.992188 61.171875 321.710938 60.890625 C 321.429688 60.609375 321.214844 60.285156 321.0625 59.917969 C 320.910156 59.554688 320.835938 59.171875 320.835938 58.773438 C 320.835938 58.378906 320.910156 57.996094 321.0625 57.632812 C 321.214844 57.265625 321.429688 56.941406 321.710938 56.660156 C 321.992188 56.378906 322.316406 56.164062 322.683594 56.011719 C 323.046875 55.859375 323.429688 55.785156 323.828125 55.785156 C 324.222656 55.785156 324.605469 55.859375 324.972656 56.011719 C 325.335938 56.164062 325.660156 56.378906 325.941406 56.660156 C 326.222656 56.941406 326.4375 57.265625 326.589844 57.632812 C 326.742188 57.996094 326.816406 58.378906 326.816406 58.773438 Z M 326.816406 58.773438 " fill-opacity="1" fill-rule="nonzero"/><path fill="#1086f4" d="M 355.15625 111.449219 C 356.726562 111.449219 358.003906 110.175781 358.003906 108.601562 C 358.003906 107.03125 356.726562 105.757812 355.15625 105.757812 C 353.585938 105.757812 352.3125 107.03125 352.3125 108.601562 C 352.3125 110.175781 353.585938 111.449219 355.15625 111.449219 Z M 355.15625 111.449219 " fill-opacity="1" fill-rule="nonzero"/><path fill="#1086f4" d="M 244.191406 98.121094 C 244.539062 98.46875 244.804688 98.867188 244.996094 99.320312 C 245.183594 99.773438 245.277344 100.246094 245.277344 100.738281 C 245.277344 101.230469 245.183594 101.703125 244.996094 102.15625 C 244.804688 102.609375 244.539062 103.011719 244.191406 103.359375 C 243.84375 103.703125 243.445312 103.972656 242.988281 104.160156 C 242.535156 104.347656 242.0625 104.441406 241.574219 104.441406 C 241.082031 104.441406 240.609375 104.347656 240.15625 104.160156 C 239.703125 103.972656 239.300781 103.703125 238.953125 103.359375 C 238.605469 103.011719 238.339844 102.609375 238.152344 102.15625 C 237.960938 101.703125 237.867188 101.230469 237.867188 100.738281 C 237.867188 100.246094 237.960938 99.773438 238.152344 99.320312 C 238.339844 98.867188 238.605469 98.46875 238.953125 98.121094 C 239.300781 97.773438 239.703125 97.503906 240.15625 97.316406 C 240.609375 97.128906 241.082031 97.035156 241.574219 97.035156 C 242.0625 97.035156 242.535156 97.128906 242.988281 97.316406 C 243.445312 97.503906 243.84375 97.773438 244.191406 98.121094 Z M 244.191406 98.121094 " fill-opacity="1" fill-rule="nonzero"/><path fill="#1086f4" d="M 277.449219 107.554688 C 277.796875 107.902344 278.066406 108.304688 278.253906 108.757812 C 278.441406 109.210938 278.535156 109.683594 278.535156 110.175781 C 278.535156 110.667969 278.441406 111.140625 278.253906 111.59375 C 278.066406 112.046875 277.796875 112.445312 277.449219 112.792969 C 277.101562 113.140625 276.703125 113.410156 276.25 113.597656 C 275.796875 113.785156 275.324219 113.878906 274.832031 113.878906 C 274.339844 113.878906 273.867188 113.785156 273.414062 113.597656 C 272.960938 113.410156 272.558594 113.140625 272.210938 112.792969 C 271.867188 112.445312 271.597656 112.046875 271.410156 111.59375 C 271.222656 111.140625 271.128906 110.667969 271.128906 110.175781 C 271.128906 109.683594 271.222656 109.210938 271.410156 108.757812 C 271.597656 108.304688 271.867188 107.902344 272.210938 107.554688 C 272.558594 107.210938 272.960938 106.941406 273.414062 106.753906 C 273.867188 106.566406 274.339844 106.472656 274.832031 106.472656 C 275.324219 106.472656 275.796875 106.566406 276.25 106.753906 C 276.703125 106.941406 277.101562 107.210938 277.449219 107.554688 Z M 277.449219 107.554688 " fill-opacity="1" fill-rule="nonzero"/><path fill="#1086f4" d="M 282.671875 137.8125 C 283.125 138 283.527344 138.269531 283.875 138.617188 C 284.222656 138.964844 284.488281 139.363281 284.675781 139.816406 C 284.867188 140.273438 284.960938 140.742188 284.960938 141.234375 C 284.960938 141.726562 284.867188 142.199219 284.675781 142.652344 C 284.488281 143.105469 284.222656 143.507812 283.875 143.855469 C 283.527344 144.203125 283.125 144.46875 282.671875 144.65625 C 282.21875 144.84375 281.746094 144.9375 281.253906 144.9375 C 280.765625 144.9375 280.292969 144.84375 279.839844 144.65625 C 279.382812 144.46875 278.984375 144.203125 278.636719 143.855469 C 278.289062 143.507812 278.023438 143.105469 277.832031 142.652344 C 277.644531 142.199219 277.550781 141.726562 277.550781 141.234375 C 277.550781 140.742188 277.644531 140.273438 277.832031 139.816406 C 278.023438 139.363281 278.289062 138.964844 278.636719 138.617188 C 278.984375 138.269531 279.382812 138 279.839844 137.8125 C 280.292969 137.625 280.765625 137.53125 281.253906 137.53125 C 281.746094 137.53125 282.21875 137.625 282.671875 137.8125 Z M 282.671875 137.8125 " fill-opacity="1" fill-rule="nonzero"/><path fill="#1086f4" d="M 282.132812 209.847656 C 282.246094 210.328125 282.265625 210.808594 282.183594 211.292969 C 282.105469 211.777344 281.9375 212.230469 281.679688 212.648438 C 281.421875 213.066406 281.09375 213.417969 280.695312 213.703125 C 280.296875 213.992188 279.859375 214.191406 279.378906 214.304688 C 278.902344 214.417969 278.421875 214.433594 277.9375 214.355469 C 277.449219 214.277344 277 214.109375 276.582031 213.851562 C 276.164062 213.59375 275.8125 213.265625 275.523438 212.867188 C 275.238281 212.46875 275.039062 212.027344 274.925781 211.550781 C 274.8125 211.074219 274.792969 210.589844 274.875 210.105469 C 274.953125 209.621094 275.121094 209.171875 275.378906 208.753906 C 275.636719 208.335938 275.964844 207.980469 276.363281 207.695312 C 276.761719 207.40625 277.199219 207.207031 277.679688 207.09375 C 278.15625 206.984375 278.636719 206.964844 279.121094 207.042969 C 279.609375 207.121094 280.058594 207.292969 280.476562 207.550781 C 280.894531 207.808594 281.246094 208.136719 281.535156 208.535156 C 281.820312 208.933594 282.019531 209.371094 282.132812 209.847656 Z M 282.132812 209.847656 " fill-opacity="1" fill-rule="nonzero"/><path fill="#1086f4" d="M 241.574219 60.714844 C 239.972656 60.714844 238.675781 62.011719 238.675781 63.609375 C 238.675781 65.210938 239.972656 66.507812 241.574219 66.507812 C 243.171875 66.507812 244.46875 65.210938 244.46875 63.609375 C 244.46875 62.011719 243.171875 60.714844 241.574219 60.714844 Z M 241.574219 60.714844 " fill-opacity="1" fill-rule="nonzero"/><g clip-path="url(#a453fce644)"><path fill="#1086f4" d="M 229.652344 12.816406 C 231.382812 12.816406 232.789062 11.410156 232.789062 9.683594 C 232.789062 7.953125 231.382812 6.546875 229.652344 6.546875 C 227.925781 6.546875 226.519531 7.953125 226.519531 9.683594 C 226.519531 11.410156 227.925781 12.816406 229.652344 12.816406 Z M 229.652344 12.816406 " fill-opacity="1" fill-rule="nonzero"/></g><g clip-path="url(#4d1f5b5d7e)"><path fill="#1086f4" d="M 359.949219 188.976562 C 362.242188 188.976562 364.09375 187.117188 364.09375 184.832031 C 364.09375 182.550781 362.234375 180.691406 359.949219 180.691406 C 357.664062 180.691406 355.804688 182.550781 355.804688 184.832031 C 355.804688 185.683594 356.066406 186.476562 356.503906 187.140625 L 337.753906 200.988281 C 337.179688 200.757812 336.558594 200.636719 335.902344 200.636719 C 335.039062 200.636719 334.222656 200.851562 333.511719 201.242188 L 298.492188 170.113281 C 299.566406 168.859375 300.21875 167.238281 300.21875 165.457031 C 300.21875 165.15625 300.199219 164.859375 300.164062 164.570312 L 336.949219 160.484375 C 337.4375 162.230469 339.039062 163.503906 340.933594 163.503906 C 343.222656 163.503906 345.078125 161.644531 345.078125 159.359375 C 345.078125 157.53125 343.886719 155.972656 342.238281 155.425781 L 344.933594 138.347656 C 344.933594 138.347656 344.976562 138.347656 344.988281 138.347656 C 346.933594 138.347656 348.511719 136.769531 348.511719 134.824219 C 348.511719 132.878906 346.933594 131.300781 344.988281 131.300781 C 343.042969 131.300781 341.464844 132.878906 341.464844 134.824219 C 341.464844 136.28125 342.34375 137.527344 343.597656 138.0625 L 340.890625 155.210938 C 340.132812 155.210938 339.425781 155.425781 338.816406 155.785156 L 306.417969 117.121094 C 308.046875 116.113281 309.140625 114.308594 309.140625 112.25 C 309.140625 112.011719 309.121094 111.773438 309.089844 111.542969 L 327.632812 111.542969 C 327.632812 111.542969 327.632812 111.574219 327.632812 111.59375 C 327.632812 113.539062 329.210938 115.117188 331.15625 115.117188 C 333.101562 115.117188 334.679688 113.539062 334.679688 111.59375 C 334.679688 109.648438 333.101562 108.070312 331.15625 108.070312 C 329.707031 108.070312 328.46875 108.941406 327.925781 110.1875 L 308.75 110.1875 C 308.195312 108.761719 307.101562 107.617188 305.703125 107.003906 L 303.417969 78.398438 C 304.941406 77.761719 306.007812 76.269531 306.007812 74.519531 C 306.007812 72.199219 304.125 70.320312 301.804688 70.320312 C 299.484375 70.320312 297.605469 72.199219 297.605469 74.519531 C 297.605469 74.722656 297.625 74.917969 297.648438 75.105469 L 271.023438 83.492188 C 270.574219 80.832031 268.304688 78.800781 265.546875 78.722656 L 254.902344 45.128906 C 255.667969 44.40625 256.230469 43.484375 256.511719 42.445312 L 271.75 45.292969 C 271.851562 47.253906 273.449219 48.808594 275.433594 48.808594 C 277.414062 48.808594 279.136719 47.152344 279.136719 45.105469 C 279.136719 43.058594 277.480469 41.402344 275.433594 41.402344 C 273.925781 41.402344 272.628906 42.308594 272.054688 43.601562 L 256.695312 40.730469 C 256.574219 37.675781 254.066406 35.234375 250.984375 35.234375 C 249.261719 35.234375 247.71875 35.996094 246.675781 37.203125 L 196.5 19.570312 C 196.859375 18.617188 197.070312 17.59375 197.070312 16.519531 C 197.070312 11.792969 193.234375 7.960938 188.507812 7.960938 C 183.78125 7.960938 179.949219 11.792969 179.949219 16.519531 C 179.949219 17.003906 180 17.480469 180.078125 17.941406 L 128.773438 26.578125 C 127.757812 23.820312 125.113281 21.84375 122 21.84375 C 118.015625 21.84375 114.777344 25.082031 114.777344 29.066406 C 114.777344 29.449219 114.816406 29.816406 114.871094 30.183594 L 46.164062 83.921875 C 44.941406 81.742188 42.605469 80.257812 39.917969 80.257812 C 35.960938 80.257812 32.761719 83.460938 32.761719 87.410156 C 32.761719 90.316406 34.492188 92.808594 36.976562 93.933594 L 12.378906 183.535156 C 9.8125 184.625 8.019531 187.167969 8.019531 190.128906 C 8.019531 193.089844 9.921875 195.765625 12.59375 196.800781 L 30.976562 269.566406 C 28.496094 271.453125 26.898438 274.421875 26.898438 277.78125 C 26.898438 283.488281 31.523438 288.113281 37.230469 288.113281 C 38.824219 288.113281 40.320312 287.746094 41.667969 287.097656 L 86.382812 332.933594 C 85.96875 333.84375 85.734375 334.84375 85.734375 335.902344 C 85.734375 339.859375 88.9375 343.058594 92.886719 343.058594 C 95.65625 343.058594 98.046875 341.488281 99.242188 339.195312 L 149.539062 356.972656 C 149.496094 357.363281 149.46875 357.75 149.46875 358.148438 C 149.46875 363.832031 154.078125 368.445312 159.765625 368.445312 C 165.003906 368.445312 169.3125 364.53125 169.96875 359.472656 L 232.074219 351.410156 C 232.449219 353.996094 234.667969 355.984375 237.355469 355.984375 C 240.304688 355.984375 242.695312 353.59375 242.695312 350.644531 C 242.695312 350.410156 242.675781 350.179688 242.644531 349.953125 L 271.671875 345.445312 L 271.585938 344.089844 L 242.300781 348.636719 C 242.027344 347.964844 241.621094 347.359375 241.117188 346.855469 L 278.660156 301.753906 C 279.289062 301.933594 279.957031 302.035156 280.640625 302.035156 C 282.175781 302.035156 283.597656 301.546875 284.765625 300.722656 L 302.632812 306.402344 C 302.632812 306.402344 302.632812 306.410156 302.632812 306.417969 C 302.632812 308.839844 304.59375 310.796875 307.015625 310.796875 C 309.4375 310.796875 311.398438 308.839844 311.398438 306.417969 C 311.398438 303.996094 309.4375 302.035156 307.015625 302.035156 C 305.078125 302.035156 303.425781 303.296875 302.859375 305.046875 L 285.953125 299.679688 C 287.105469 298.410156 287.8125 296.726562 287.8125 294.878906 C 287.8125 292.035156 286.148438 289.578125 283.734375 288.425781 L 285 268.621094 C 285.476562 268.796875 285.988281 268.902344 286.523438 268.902344 C 288.941406 268.902344 290.902344 266.945312 290.902344 264.523438 C 290.902344 263.9375 290.789062 263.375 290.578125 262.867188 L 318.445312 248.648438 C 318.882812 249.246094 319.46875 249.738281 320.144531 250.054688 L 313.875 271.886719 C 311.546875 271.988281 309.679688 273.90625 309.679688 276.261719 C 309.679688 278.617188 311.640625 280.640625 314.0625 280.640625 C 316.484375 280.640625 318.445312 278.683594 318.445312 276.261719 C 318.445312 274.25 317.089844 272.558594 315.238281 272.046875 L 321.441406 250.433594 C 321.621094 250.457031 321.800781 250.472656 321.980469 250.472656 C 323.601562 250.472656 325.023438 249.585938 325.777344 248.273438 L 341.222656 254.195312 C 341.214844 254.296875 341.191406 254.390625 341.191406 254.492188 C 341.191406 256.417969 342.757812 257.980469 344.679688 257.980469 C 346.605469 257.980469 348.167969 256.417969 348.167969 254.492188 C 348.167969 252.566406 346.605469 251.003906 344.679688 251.003906 C 343.339844 251.003906 342.1875 251.777344 341.601562 252.886719 L 326.269531 247.003906 C 326.335938 246.710938 326.371094 246.398438 326.371094 246.089844 C 326.371094 245.515625 326.253906 244.957031 326.054688 244.453125 L 335.390625 238.898438 L 334.699219 237.730469 L 325.359375 243.289062 C 324.554688 242.320312 323.34375 241.703125 321.988281 241.703125 C 320.921875 241.703125 319.949219 242.082031 319.1875 242.71875 L 300.652344 226.417969 C 301.011719 225.726562 301.214844 224.941406 301.214844 224.113281 C 301.214844 223.371094 301.050781 222.671875 300.769531 222.039062 L 331.480469 208.035156 C 332.328125 209.621094 333.992188 210.703125 335.917969 210.703125 C 336.679688 210.703125 337.402344 210.53125 338.050781 210.21875 L 351.316406 225.691406 L 352.347656 224.8125 L 339.203125 209.476562 C 340.269531 208.554688 340.953125 207.191406 340.953125 205.671875 C 340.953125 204.152344 340.210938 202.660156 339.050781 201.738281 L 357.464844 188.140625 C 358.160156 188.675781 359.027344 188.992188 359.96875 188.992188 Z M 46.734375 89.601562 L 61.746094 96.03125 C 60.972656 97.375 60.519531 98.933594 60.519531 100.597656 C 60.519531 103.019531 61.464844 105.222656 63 106.859375 L 43.082031 136.070312 C 42.808594 135.976562 42.527344 135.914062 42.238281 135.882812 L 40.832031 94.507812 C 43.613281 94.148438 45.898438 92.203125 46.734375 89.59375 Z M 211.675781 241.925781 C 210.796875 241.152344 209.730469 240.597656 208.546875 240.332031 L 208.210938 198.753906 C 208.410156 198.761719 208.613281 198.785156 208.816406 198.785156 C 211.667969 198.785156 214.261719 197.71875 216.242188 195.964844 C 224.148438 204.535156 241.585938 223.457031 249.109375 231.792969 C 248.109375 232.789062 247.480469 234.15625 247.429688 235.671875 L 211.675781 241.910156 Z M 223.125 292.828125 C 223.125 293.519531 223.253906 294.183594 223.480469 294.800781 L 186.484375 298.996094 C 185.871094 297.53125 184.820312 296.292969 183.507812 295.433594 L 205.441406 254.296875 C 205.941406 254.40625 206.453125 254.464844 206.976562 254.464844 C 208.167969 254.464844 209.289062 254.167969 210.277344 253.65625 L 225.53125 288.164062 C 224.078125 289.203125 223.125 290.902344 223.125 292.828125 Z M 122.476562 294.707031 C 122.402344 291.925781 120.59375 289.585938 118.078125 288.734375 L 133.101562 252.539062 C 133.816406 252.699219 134.558594 252.785156 135.316406 252.785156 C 136.929688 252.785156 138.449219 252.402344 139.804688 251.738281 L 173.433594 296.726562 C 172.273438 297.992188 171.53125 299.636719 171.402344 301.453125 L 122.476562 294.699219 Z M 84.6875 240.921875 C 85.847656 240.152344 86.777344 239.058594 87.324219 237.761719 L 125.054688 243.15625 C 125.320312 247.316406 128.042969 250.796875 131.792969 252.164062 L 116.730469 288.4375 C 116.488281 288.410156 116.242188 288.394531 115.996094 288.394531 C 114.621094 288.394531 113.34375 288.828125 112.292969 289.5625 L 84.679688 240.929688 Z M 42.554688 218.527344 L 60.367188 183.566406 C 62.167969 185.109375 64.496094 186.035156 67.054688 186.035156 C 67.097656 186.035156 67.148438 186.035156 67.191406 186.035156 L 79.03125 228.019531 C 76.753906 228.578125 74.902344 230.222656 74.074219 232.382812 L 44.371094 222.605469 C 44.398438 222.398438 44.421875 222.1875 44.421875 221.980469 C 44.421875 220.539062 43.679688 219.269531 42.554688 218.535156 Z M 78.808594 99.34375 L 98.175781 91.546875 C 98.542969 92.84375 99.523438 93.875 100.785156 94.328125 L 100.957031 123.828125 C 100.503906 124.074219 100.109375 124.40625 99.789062 124.808594 L 77.332031 105.75 C 78.324219 104.28125 78.910156 102.507812 78.910156 100.605469 C 78.910156 100.179688 78.871094 99.761719 78.816406 99.351562 Z M 250.183594 230.972656 C 242.640625 222.59375 225.144531 203.613281 217.210938 195.023438 C 218.988281 193.035156 220.078125 190.410156 220.078125 187.535156 C 220.078125 187.21875 220.054688 186.910156 220.027344 186.597656 L 255.617188 184.085938 C 256.035156 185.855469 257.28125 187.320312 258.925781 188.027344 L 252.8125 230.15625 C 251.855469 230.214844 250.953125 230.503906 250.175781 230.980469 Z M 179.234375 294.175781 C 177.425781 294.175781 175.769531 294.792969 174.4375 295.816406 L 140.992188 251.082031 C 143.140625 249.65625 144.71875 247.445312 145.324219 244.859375 L 199.835938 247.8125 C 200.015625 250.441406 201.609375 252.667969 203.863281 253.765625 L 182.28125 294.792969 C 181.347656 294.398438 180.308594 294.183594 179.226562 294.183594 Z M 87.757812 236.371094 C 87.851562 235.914062 87.894531 235.445312 87.894531 234.964844 C 87.894531 232.105469 86.207031 229.640625 83.785156 228.492188 L 99.148438 203.1875 C 100.171875 203.75 101.347656 204.074219 102.59375 204.074219 C 104.292969 204.074219 105.859375 203.476562 107.089844 202.480469 L 131.144531 233.097656 C 127.785156 234.589844 125.386719 237.816406 125.070312 241.644531 Z M 75.890625 181.007812 L 95.648438 195.210938 C 95.511719 195.757812 95.429688 196.328125 95.429688 196.917969 C 95.429688 199.128906 96.433594 201.105469 98.011719 202.421875 L 82.714844 228.097656 C 82.085938 227.917969 81.421875 227.816406 80.738281 227.816406 C 80.585938 227.816406 80.445312 227.832031 80.292969 227.835938 L 68.605469 185.929688 C 71.703125 185.460938 74.347656 183.609375 75.890625 181.023438 Z M 102.253906 94.582031 C 104.257812 94.550781 105.921875 93.109375 106.296875 91.207031 L 133.355469 96.492188 C 133.355469 96.539062 133.347656 96.597656 133.347656 96.648438 C 133.347656 98.03125 133.839844 99.308594 134.652344 100.300781 L 105.058594 124.269531 C 104.417969 123.726562 103.59375 123.390625 102.6875 123.390625 C 102.644531 123.390625 102.601562 123.402344 102.558594 123.402344 L 102.261719 94.589844 Z M 164.355469 78.585938 C 164.355469 78.585938 164.371094 78.585938 164.382812 78.585938 L 178.421875 119.910156 C 178.175781 120.089844 177.945312 120.292969 177.742188 120.523438 L 144.34375 99.136719 C 144.703125 98.378906 144.914062 97.542969 144.914062 96.648438 C 144.914062 95.648438 144.652344 94.703125 144.207031 93.882812 L 161.667969 77.410156 C 162.34375 78.128906 163.296875 78.589844 164.363281 78.589844 Z M 201.4375 84.261719 C 201.992188 84.261719 202.53125 84.210938 203.066406 84.140625 L 212.785156 128.960938 C 211.871094 129.339844 211.113281 130.027344 210.625 130.882812 L 185.042969 123.546875 C 185.042969 123.460938 185.058594 123.382812 185.058594 123.296875 C 185.058594 121.78125 184.25 120.464844 183.054688 119.730469 L 197.6875 83.65625 C 198.871094 84.046875 200.132812 84.261719 201.441406 84.261719 Z M 244.621094 146.332031 L 215.566406 178.542969 C 214.003906 177.367188 212.136719 176.589844 210.089844 176.359375 L 214.753906 137.613281 C 216.613281 137.519531 218.167969 136.308594 218.765625 134.628906 L 243.28125 141.65625 C 243.230469 141.953125 243.199219 142.261719 243.199219 142.570312 C 243.199219 144.011719 243.742188 145.332031 244.621094 146.332031 Z M 198.632812 192.3125 L 172.757812 204.007812 C 171.992188 203.035156 170.804688 202.402344 169.464844 202.402344 C 168.785156 202.402344 168.144531 202.566406 167.574219 202.855469 L 143.507812 170.003906 C 145.222656 168.9375 146.648438 167.46875 147.644531 165.710938 L 198.496094 183.039062 C 197.890625 184.414062 197.550781 185.9375 197.550781 187.535156 C 197.550781 189.242188 197.941406 190.859375 198.625 192.3125 Z M 137.628906 232.476562 L 136.929688 171.804688 C 137.015625 171.804688 137.09375 171.820312 137.175781 171.820312 C 139.011719 171.820312 140.75 171.394531 142.3125 170.660156 L 166.480469 203.65625 C 165.738281 204.410156 165.277344 205.441406 165.277344 206.589844 C 165.277344 207.394531 165.507812 208.144531 165.902344 208.785156 L 141.117188 234.007812 C 140.070312 233.292969 138.890625 232.773438 137.621094 232.476562 Z M 139.128906 102.433594 C 140.949219 102.433594 142.570312 101.59375 143.632812 100.273438 L 177.015625 121.652344 C 176.800781 122.15625 176.675781 122.710938 176.675781 123.296875 C 176.675781 124.082031 176.894531 124.808594 177.273438 125.4375 L 146.125 151.738281 C 144.097656 149.480469 141.238281 147.996094 138.019531 147.773438 L 138.667969 102.40625 C 138.816406 102.421875 138.96875 102.429688 139.121094 102.429688 Z M 213.40625 137.476562 L 208.734375 176.289062 C 208 176.289062 207.285156 176.367188 206.589844 176.503906 L 183.234375 126.746094 C 183.902344 126.285156 184.429688 125.636719 184.738281 124.875 L 210.125 132.152344 C 210.0625 132.460938 210.019531 132.785156 210.019531 133.117188 C 210.019531 135.214844 211.460938 136.980469 213.40625 137.476562 Z M 146.980469 152.796875 L 178.152344 126.480469 C 178.882812 127.109375 179.832031 127.484375 180.871094 127.484375 C 181.265625 127.484375 181.648438 127.425781 182.007812 127.324219 L 205.261719 176.863281 C 202.667969 177.730469 200.5 179.507812 199.128906 181.820312 L 148.265625 164.484375 C 148.875 163.035156 149.222656 161.445312 149.222656 159.773438 C 149.222656 157.164062 148.386719 154.765625 146.980469 152.789062 Z M 106.378906 127.085938 C 106.378906 126.257812 106.097656 125.507812 105.640625 124.886719 L 135.742188 101.332031 C 136.222656 101.679688 136.757812 101.960938 137.332031 102.148438 L 136.675781 147.757812 C 133.160156 147.902344 130.035156 149.546875 127.921875 152.074219 L 105.179688 129.789062 C 105.910156 129.109375 106.371094 128.160156 106.371094 127.085938 Z M 128.636719 168.265625 L 107.34375 191.578125 C 106.074219 190.453125 104.417969 189.761719 102.59375 189.761719 C 99.726562 189.761719 97.261719 191.449219 96.117188 193.882812 L 76.515625 179.796875 C 77.050781 178.558594 77.34375 177.1875 77.34375 175.753906 C 77.34375 173.9375 76.871094 172.238281 76.046875 170.761719 L 125.660156 163.324219 C 126.242188 165.210938 127.273438 166.898438 128.628906 168.265625 Z M 135.316406 232.210938 C 134.328125 232.210938 133.382812 232.355469 132.484375 232.617188 L 108.0625 201.53125 C 109.117188 200.28125 109.75 198.675781 109.75 196.917969 C 109.75 195.28125 109.195312 193.777344 108.265625 192.574219 L 129.644531 169.167969 C 131.316406 170.507812 133.347656 171.402344 135.566406 171.703125 L 136.265625 232.261719 C 135.949219 232.234375 135.632812 232.210938 135.316406 232.210938 Z M 166.796875 209.808594 C 167.519531 210.40625 168.449219 210.765625 169.464844 210.765625 C 170.363281 210.765625 171.199219 210.480469 171.878906 209.996094 L 202.515625 241.722656 C 201.082031 242.867188 200.097656 244.546875 199.863281 246.464844 L 145.554688 243.523438 C 145.589844 243.195312 145.605469 242.855469 145.605469 242.507812 C 145.605469 239.46875 144.28125 236.746094 142.183594 234.855469 L 166.796875 209.816406 Z M 203.675781 240.964844 L 172.84375 209.039062 C 173.347656 208.347656 173.652344 207.496094 173.652344 206.582031 C 173.652344 206.089844 173.5625 205.628906 173.414062 205.195312 L 199.289062 193.503906 C 200.945312 196.148438 203.667969 198.050781 206.863281 198.609375 L 207.199219 240.175781 C 207.128906 240.175781 207.054688 240.160156 206.976562 240.160156 C 205.789062 240.160156 204.671875 240.457031 203.683594 240.964844 Z M 255.449219 182.730469 L 219.832031 185.25 C 219.363281 182.972656 218.203125 180.957031 216.589844 179.414062 L 245.613281 147.242188 C 246.550781 147.902344 247.691406 148.292969 248.914062 148.292969 C 249.363281 148.292969 249.792969 148.234375 250.210938 148.140625 L 259.21875 177.382812 C 257.027344 178.183594 255.457031 180.273438 255.445312 182.738281 Z M 243.640625 140.34375 L 219.019531 133.285156 C 219.019531 133.226562 219.023438 133.167969 219.023438 133.109375 C 219.023438 130.625 217.007812 128.605469 214.523438 128.605469 C 214.378906 128.605469 214.234375 128.613281 214.089844 128.628906 L 204.382812 83.878906 C 205.449219 83.613281 206.453125 83.210938 207.378906 82.675781 L 246.105469 137.578125 C 245.003906 138.199219 244.128906 139.171875 243.632812 140.34375 Z M 196.40625 83.152344 L 181.777344 119.210938 C 181.484375 119.144531 181.171875 119.101562 180.855469 119.101562 C 180.425781 119.101562 180.007812 119.167969 179.617188 119.289062 L 165.703125 78.308594 C 167.070312 77.769531 168.042969 76.445312 168.042969 74.878906 C 168.042969 74.78125 168.023438 74.679688 168.015625 74.578125 L 189.519531 73.863281 C 190.085938 78 192.753906 81.464844 196.414062 83.144531 Z M 160.652344 74.886719 C 160.652344 75.398438 160.753906 75.882812 160.9375 76.328125 L 143.449219 92.828125 C 142.390625 91.625 140.84375 90.863281 139.113281 90.863281 C 139.070312 90.863281 139.035156 90.863281 138.992188 90.863281 L 124.789062 35.714844 C 125.464844 35.4375 126.085938 35.054688 126.632812 34.585938 L 161.746094 72.25 C 161.070312 72.921875 160.644531 73.851562 160.644531 74.871094 Z M 122 36.285156 C 122.554688 36.285156 123.09375 36.214844 123.613281 36.097656 L 137.628906 91.066406 C 135.632812 91.589844 134.070312 93.152344 133.535156 95.148438 L 106.320312 89.839844 C 106.125 88.40625 105.210938 87.210938 103.949219 86.609375 L 121.140625 36.226562 C 121.421875 36.265625 121.703125 36.285156 121.992188 36.285156 Z M 100.632812 130.15625 C 101.21875 130.546875 101.917969 130.769531 102.667969 130.769531 C 103.132812 130.769531 103.574219 130.675781 103.984375 130.515625 L 127.09375 153.171875 C 125.847656 155.066406 125.121094 157.335938 125.121094 159.773438 C 125.121094 160.527344 125.199219 161.269531 125.335938 161.992188 L 75.210938 169.507812 C 74.773438 168.929688 74.273438 168.398438 73.71875 167.929688 Z M 260.226562 188.402344 C 260.539062 188.449219 260.847656 188.488281 261.171875 188.488281 C 264.335938 188.488281 266.902344 185.921875 266.902344 182.757812 C 266.902344 182.230469 266.820312 181.71875 266.691406 181.238281 L 287.4375 169.882812 C 287.914062 170.480469 288.476562 171.003906 289.117188 171.429688 L 254.289062 229.351562 L 260.226562 188.40625 Z M 266.171875 179.96875 C 265.191406 178.21875 263.320312 177.03125 261.171875 177.03125 C 260.957031 177.03125 260.746094 177.042969 260.546875 177.066406 L 251.496094 147.679688 C 252.480469 147.183594 253.296875 146.414062 253.859375 145.46875 L 287.984375 160.414062 C 286.703125 161.710938 285.910156 163.488281 285.910156 165.449219 C 285.910156 166.632812 286.203125 167.75 286.710938 168.734375 L 266.179688 179.96875 Z M 289.160156 159.449219 L 254.398438 144.222656 C 254.558594 143.695312 254.644531 143.140625 254.644531 142.5625 C 254.644531 141.785156 254.484375 141.042969 254.203125 140.367188 L 298.636719 115.398438 C 299.167969 116.210938 299.910156 116.875 300.773438 117.328125 L 291.421875 158.488281 C 290.601562 158.675781 289.835938 159.007812 289.152344 159.453125 Z M 298.035156 114.179688 L 253.542969 139.183594 C 252.820312 138.199219 251.796875 137.449219 250.601562 137.082031 L 264.445312 90.070312 C 264.753906 90.121094 265.070312 90.15625 265.394531 90.15625 C 266.980469 90.15625 268.421875 89.507812 269.457031 88.464844 L 297.90625 110.699219 C 297.769531 111.191406 297.691406 111.703125 297.691406 112.234375 C 297.691406 112.917969 297.8125 113.566406 298.035156 114.171875 Z M 263.140625 89.695312 L 249.253906 136.851562 C 249.144531 136.851562 249.03125 136.835938 248.921875 136.835938 C 248.394531 136.835938 247.882812 136.914062 247.394531 137.042969 L 208.519531 81.925781 C 210.617188 80.394531 212.203125 78.210938 212.957031 75.664062 L 259.679688 84.089844 C 259.679688 84.203125 259.667969 84.3125 259.667969 84.429688 C 259.667969 86.792969 261.09375 88.816406 263.140625 89.695312 Z M 189.394531 72.496094 L 167.597656 73.15625 C 166.976562 71.992188 165.761719 71.183594 164.347656 71.183594 C 163.859375 71.183594 163.390625 71.285156 162.964844 71.457031 L 127.417969 33.820312 C 128.015625 33.144531 128.484375 32.359375 128.792969 31.492188 L 190.28125 67.652344 C 189.703125 69.058594 189.378906 70.59375 189.378906 72.207031 C 189.378906 72.300781 189.394531 72.394531 189.394531 72.496094 Z M 119.476562 35.816406 L 102.59375 86.230469 C 102.457031 86.214844 102.320312 86.207031 102.183594 86.207031 C 99.871094 86.207031 97.996094 88.082031 97.996094 90.394531 C 97.996094 90.410156 97.996094 90.429688 97.996094 90.445312 L 78.527344 98.082031 C 78.050781 96.417969 77.121094 94.949219 75.882812 93.816406 L 118.164062 35.175781 C 118.578125 35.4375 119.015625 35.652344 119.46875 35.824219 Z M 76.464844 106.800781 L 99.140625 126.046875 C 99.046875 126.371094 98.976562 126.71875 98.976562 127.070312 C 98.976562 127.863281 99.230469 128.59375 99.652344 129.191406 L 72.640625 167.105469 C 71.210938 166.183594 69.546875 165.601562 67.753906 165.480469 L 70.960938 109.683594 C 73.128906 109.390625 75.046875 108.335938 76.457031 106.792969 Z M 66.398438 165.480469 C 63.796875 165.636719 61.457031 166.753906 59.726562 168.496094 L 44.5 142.796875 C 45.292969 142.066406 45.796875 141.023438 45.796875 139.855469 C 45.796875 138.578125 45.199219 137.449219 44.269531 136.71875 L 63.992188 107.796875 C 65.535156 109.019531 67.480469 109.761719 69.589844 109.785156 L 66.386719 165.484375 Z M 41.804688 143.855469 C 42.359375 143.855469 42.886719 143.738281 43.371094 143.539062 L 58.804688 169.59375 C 57.523438 171.308594 56.75 173.433594 56.75 175.746094 C 56.75 176.027344 56.773438 176.300781 56.792969 176.574219 L 21.730469 187.261719 C 21.246094 186.167969 20.503906 185.222656 19.574219 184.496094 L 40.300781 143.558594 C 40.769531 143.753906 41.28125 143.855469 41.8125 143.855469 Z M 22.148438 188.542969 L 56.988281 177.929688 C 57.390625 179.789062 58.300781 181.460938 59.5625 182.792969 L 41.335938 217.996094 C 41.007812 217.910156 40.652344 217.859375 40.292969 217.859375 C 39.601562 217.859375 38.953125 218.03125 38.375 218.332031 L 20.5625 194.828125 C 21.660156 193.566406 22.328125 191.929688 22.328125 190.128906 C 22.328125 189.582031 22.265625 189.054688 22.148438 188.542969 Z M 41.078125 226.007812 C 42.324219 225.769531 43.371094 224.960938 43.9375 223.875 L 73.691406 233.667969 C 73.621094 234.085938 73.570312 234.511719 73.570312 234.949219 C 73.570312 237.082031 74.503906 238.984375 75.984375 240.296875 L 45.632812 271.773438 C 44.097656 269.625 41.761719 268.089844 39.058594 267.605469 L 41.078125 226 Z M 46.367188 272.96875 L 77.101562 241.109375 C 78.167969 241.738281 79.40625 242.105469 80.730469 242.105469 C 81.726562 242.105469 82.675781 241.902344 83.535156 241.535156 L 111.34375 290.363281 C 110.792969 290.933594 110.347656 291.59375 110.03125 292.328125 L 47.390625 279.546875 C 47.492188 278.96875 47.554688 278.378906 47.554688 277.773438 C 47.554688 276.039062 47.125 274.410156 46.367188 272.96875 Z M 122.359375 296.070312 L 171.410156 302.828125 C 171.71875 305.875 173.773438 308.398438 176.554688 309.40625 L 165.746094 349.773438 C 164.058594 348.5625 161.992188 347.84375 159.757812 347.84375 C 157.523438 347.84375 155.355469 348.601562 153.648438 349.867188 L 118.007812 301.019531 C 120.234375 300.292969 121.925781 298.398438 122.359375 296.0625 Z M 166.878906 350.726562 L 177.851562 309.761719 C 178.296875 309.839844 178.753906 309.890625 179.226562 309.890625 C 181.417969 309.890625 183.398438 308.988281 184.828125 307.542969 L 232.660156 348.074219 C 232.335938 348.671875 232.117188 349.335938 232.039062 350.039062 L 170.046875 358.074219 C 170.027344 355.1875 168.816406 352.585938 166.878906 350.726562 Z M 233.429688 347.015625 L 185.675781 306.523438 C 186.570312 305.25 187.097656 303.699219 187.097656 302.027344 C 187.097656 301.4375 187.023438 300.863281 186.902344 300.304688 L 224.148438 296.082031 C 225.070312 297.417969 226.539062 298.332031 228.234375 298.519531 L 235.808594 345.53125 C 234.886719 345.8125 234.078125 346.328125 233.4375 347.015625 Z M 226.714844 287.515625 L 211.421875 252.914062 C 213.074219 251.601562 214.132812 249.585938 214.132812 247.316406 C 214.132812 245.746094 213.621094 244.296875 212.761719 243.113281 L 247.546875 237.039062 C 247.890625 238.683594 248.9375 240.066406 250.363281 240.867188 L 232.492188 288.410156 C 231.503906 287.59375 230.238281 287.105469 228.855469 287.105469 C 228.097656 287.105469 227.382812 287.257812 226.722656 287.515625 Z M 233.507812 289.519531 L 251.609375 241.378906 C 252.101562 241.515625 252.613281 241.59375 253.144531 241.59375 C 254.5625 241.59375 255.855469 241.074219 256.855469 240.222656 L 283.265625 261.582031 C 282.558594 262.359375 282.125 263.390625 282.125 264.523438 C 282.125 264.867188 282.167969 265.207031 282.25 265.53125 L 234.007812 290.363281 C 233.863281 290.066406 233.703125 289.785156 233.515625 289.519531 Z M 286.5 260.132812 C 285.722656 260.132812 284.988281 260.34375 284.351562 260.695312 L 257.765625 239.222656 C 258.449219 238.277344 258.859375 237.117188 258.859375 235.863281 C 258.859375 235.410156 258.800781 234.972656 258.699219 234.546875 L 291.3125 225.4375 C 291.738281 226.988281 292.886719 228.234375 294.371094 228.796875 L 287.308594 260.207031 C 287.046875 260.15625 286.773438 260.128906 286.5 260.128906 Z M 291.132812 224.082031 L 258.238281 233.269531 C 257.597656 232.011719 256.503906 231.023438 255.167969 230.519531 L 290.320312 172.066406 C 291.070312 172.375 291.882812 172.554688 292.726562 172.589844 L 295.253906 219.15625 C 292.921875 219.578125 291.140625 221.621094 291.132812 224.082031 Z M 337.785156 156.652344 C 337.207031 157.320312 336.847656 158.179688 336.796875 159.125 L 299.867188 163.230469 C 298.929688 160.363281 296.242188 158.289062 293.066406 158.289062 C 293 158.289062 292.933594 158.292969 292.871094 158.292969 L 302.070312 117.796875 C 302.503906 117.90625 302.957031 117.964844 303.425781 117.964844 C 304.03125 117.964844 304.617188 117.871094 305.15625 117.695312 L 337.792969 156.644531 Z M 301.8125 78.707031 C 301.90625 78.707031 302 78.699219 302.085938 78.691406 L 304.3125 106.59375 C 304.019531 106.550781 303.722656 106.515625 303.417969 106.515625 C 301.285156 106.515625 299.433594 107.679688 298.449219 109.402344 L 270.289062 87.398438 C 270.742188 86.65625 271.03125 85.796875 271.101562 84.882812 L 298.066406 76.386719 C 298.757812 77.761719 300.167969 78.707031 301.8125 78.707031 Z M 264.167969 78.84375 C 262.136719 79.28125 260.515625 80.796875 259.910156 82.761719 L 213.261719 74.355469 C 213.382812 73.664062 213.460938 72.949219 213.460938 72.222656 C 213.460938 69.503906 212.554688 67.011719 211.035156 64.992188 L 246.394531 44.371094 C 247.4375 45.777344 249.101562 46.683594 250.984375 46.683594 C 251.984375 46.683594 252.929688 46.425781 253.75 45.96875 Z M 245.886719 38.359375 C 245.492188 39.140625 245.261719 40.027344 245.261719 40.960938 C 245.261719 41.753906 245.425781 42.511719 245.714844 43.203125 L 210.15625 63.941406 C 207.957031 61.628906 204.867188 60.171875 201.421875 60.171875 C 200.476562 60.171875 199.5625 60.296875 198.675781 60.496094 L 190.433594 24.859375 C 192.773438 24.316406 194.742188 22.816406 195.917969 20.800781 Z M 180.402344 19.265625 C 181.546875 22.652344 184.738281 25.089844 188.507812 25.089844 C 188.703125 25.089844 188.898438 25.074219 189.09375 25.058594 L 197.378906 60.894531 C 194.589844 61.886719 192.269531 63.878906 190.863281 66.441406 L 129.132812 30.148438 C 129.183594 29.792969 129.21875 29.441406 129.21875 29.074219 C 129.21875 28.667969 129.175781 28.28125 129.117188 27.898438 Z M 115.246094 31.617188 C 115.644531 32.667969 116.277344 33.605469 117.09375 34.355469 L 74.824219 92.972656 C 73.359375 91.988281 71.59375 91.417969 69.699219 91.417969 C 66.789062 91.417969 64.195312 92.78125 62.507812 94.898438 L 47.007812 88.261719 C 47.039062 87.988281 47.058594 87.714844 47.058594 87.433594 C 47.058594 86.660156 46.9375 85.917969 46.707031 85.21875 L 115.238281 31.617188 Z M 38.261719 94.371094 C 38.65625 94.464844 39.058594 94.523438 39.476562 94.550781 L 40.882812 135.972656 C 39.125 136.390625 37.820312 137.96875 37.820312 139.855469 C 37.820312 141.035156 38.339844 142.097656 39.152344 142.832031 L 18.429688 183.753906 C 17.457031 183.253906 16.355469 182.96875 15.179688 182.96875 C 14.75 182.96875 14.324219 183.011719 13.914062 183.082031 Z M 14.09375 197.191406 C 14.445312 197.25 14.804688 197.285156 15.179688 197.285156 C 16.84375 197.285156 18.378906 196.707031 19.597656 195.757812 L 37.316406 219.140625 C 36.617188 219.875 36.183594 220.871094 36.183594 221.964844 C 36.183594 224.039062 37.71875 225.75 39.707031 226.035156 L 37.25 267.441406 C 37.25 267.441406 37.238281 267.441406 37.230469 267.441406 C 35.394531 267.441406 33.671875 267.921875 32.171875 268.765625 Z M 42.894531 286.40625 C 44.867188 285.109375 46.367188 283.164062 47.085938 280.859375 L 109.640625 293.625 C 109.5625 294.03125 109.519531 294.441406 109.519531 294.867188 C 109.519531 296.734375 110.3125 298.410156 111.578125 299.59375 L 94.523438 328.933594 C 93.996094 328.8125 93.449219 328.742188 92.886719 328.742188 C 90.496094 328.742188 88.390625 329.914062 87.085938 331.714844 Z M 99.746094 337.933594 C 99.941406 337.285156 100.042969 336.609375 100.042969 335.894531 C 100.042969 332.992188 98.3125 330.5 95.828125 329.375 L 112.660156 300.414062 C 113.632812 301 114.773438 301.34375 115.996094 301.34375 C 116.175781 301.34375 116.351562 301.328125 116.523438 301.316406 L 152.632812 350.726562 C 151.269531 352.039062 150.269531 353.722656 149.792969 355.617188 Z M 239.996094 346 C 239.214844 345.550781 238.308594 345.292969 237.351562 345.292969 C 237.277344 345.292969 237.199219 345.300781 237.125 345.308594 L 229.582031 298.496094 C 232.371094 298.144531 234.53125 295.78125 234.574219 292.90625 L 273.492188 295.15625 C 273.59375 297.753906 275.078125 300.003906 277.242188 301.171875 Z M 282.457031 287.949219 C 281.875 287.796875 281.269531 287.703125 280.636719 287.703125 C 277.046875 287.703125 274.085938 290.347656 273.566406 293.792969 L 234.429688 291.539062 C 234.417969 291.472656 234.402344 291.414062 234.382812 291.355469 L 282.839844 266.886719 C 283.140625 267.347656 283.53125 267.75 283.976562 268.074219 L 282.449219 287.949219 Z M 318.285156 243.710938 C 317.851562 244.390625 317.601562 245.195312 317.601562 246.0625 C 317.601562 246.535156 317.679688 247 317.824219 247.429688 L 289.914062 261.742188 C 289.546875 261.292969 289.101562 260.917969 288.589844 260.640625 L 295.5 229.0625 C 295.722656 229.089844 295.953125 229.113281 296.183594 229.113281 C 297.640625 229.113281 298.945312 228.492188 299.867188 227.507812 L 318.292969 243.710938 Z M 300.039062 220.863281 C 299.203125 219.867188 297.992188 219.199219 296.625 219.074219 L 294.09375 172.503906 C 295.378906 172.316406 296.550781 171.796875 297.523438 171.027344 L 332.410156 202.035156 C 331.464844 202.949219 330.882812 204.222656 330.882812 205.636719 C 330.882812 206.011719 330.925781 206.378906 331.003906 206.730469 L 300.039062 220.847656 Z M 300.039062 220.863281 " fill-opacity="1" fill-rule="nonzero"/></g><path fill="#1086f4" d="M 366.421875 208.074219 C 366.421875 208.464844 366.34375 208.84375 366.195312 209.207031 C 366.042969 209.570312 365.828125 209.894531 365.550781 210.171875 C 365.273438 210.449219 364.949219 210.664062 364.585938 210.816406 C 364.222656 210.964844 363.84375 211.042969 363.453125 211.042969 C 363.058594 211.042969 362.679688 210.964844 362.316406 210.816406 C 361.953125 210.664062 361.628906 210.449219 361.351562 210.171875 C 361.074219 209.894531 360.859375 209.570312 360.707031 209.207031 C 360.558594 208.84375 360.484375 208.464844 360.484375 208.074219 C 360.484375 207.679688 360.558594 207.300781 360.707031 206.9375 C 360.859375 206.574219 361.074219 206.25 361.351562 205.972656 C 361.628906 205.695312 361.953125 205.480469 362.316406 205.328125 C 362.679688 205.179688 363.058594 205.105469 363.453125 205.105469 C 363.84375 205.105469 364.222656 205.179688 364.585938 205.328125 C 364.949219 205.480469 365.273438 205.695312 365.550781 205.972656 C 365.828125 206.25 366.042969 206.574219 366.195312 206.9375 C 366.34375 207.300781 366.421875 207.679688 366.421875 208.074219 Z M 366.421875 208.074219 " fill-opacity="1" fill-rule="nonzero"/><path fill="#1086f4" d="M 313.945312 199.164062 C 314.054688 199.617188 314.070312 200.074219 313.996094 200.535156 C 313.921875 200.996094 313.761719 201.425781 313.515625 201.824219 C 313.269531 202.222656 312.957031 202.558594 312.578125 202.832031 C 312.199219 203.101562 311.78125 203.292969 311.328125 203.402344 C 310.871094 203.507812 310.414062 203.523438 309.953125 203.449219 C 309.492188 203.375 309.0625 203.214844 308.664062 202.96875 C 308.265625 202.722656 307.933594 202.410156 307.660156 202.03125 C 307.386719 201.652344 307.195312 201.234375 307.089844 200.78125 C 306.980469 200.324219 306.964844 199.867188 307.039062 199.40625 C 307.113281 198.945312 307.273438 198.515625 307.519531 198.117188 C 307.765625 197.722656 308.078125 197.386719 308.457031 197.113281 C 308.835938 196.839844 309.253906 196.648438 309.707031 196.542969 C 310.164062 196.433594 310.621094 196.417969 311.082031 196.492188 C 311.542969 196.566406 311.972656 196.730469 312.371094 196.972656 C 312.769531 197.21875 313.101562 197.53125 313.375 197.910156 C 313.648438 198.289062 313.839844 198.707031 313.945312 199.164062 Z M 313.945312 199.164062 " fill-opacity="1" fill-rule="nonzero"/><path fill="#1086f4" d="M 328.761719 225.101562 C 328.761719 226.265625 329.714844 227.21875 330.882812 227.21875 C 332.046875 227.21875 333 226.265625 333 225.101562 C 333 223.933594 332.046875 222.980469 330.882812 222.980469 C 329.714844 222.980469 328.761719 223.933594 328.761719 225.101562 Z M 328.761719 225.101562 " fill-opacity="1" fill-rule="nonzero"/><path fill="#1086f4" d="M 275.597656 238.035156 C 274.429688 238.035156 273.480469 238.984375 273.480469 240.152344 C 273.480469 241.320312 274.429688 242.269531 275.597656 242.269531 C 276.765625 242.269531 277.714844 241.320312 277.714844 240.152344 C 277.714844 238.984375 276.765625 238.035156 275.597656 238.035156 Z M 275.597656 238.035156 " fill-opacity="1" fill-rule="nonzero"/><path fill="#1086f4" d="M 267.691406 160.851562 C 266.527344 160.851562 265.574219 161.804688 265.574219 162.972656 C 265.574219 164.136719 266.527344 165.089844 267.691406 165.089844 C 268.859375 165.089844 269.8125 164.136719 269.8125 162.972656 C 269.8125 161.804688 268.859375 160.851562 267.691406 160.851562 Z M 267.691406 160.851562 " fill-opacity="1" fill-rule="nonzero"/><path fill="#1086f4" d="M 255.59375 262.390625 C 254.425781 262.390625 253.476562 263.339844 253.476562 264.507812 C 253.476562 265.675781 254.425781 266.625 255.59375 266.625 C 256.761719 266.625 257.714844 265.675781 257.714844 264.507812 C 257.714844 263.339844 256.761719 262.390625 255.59375 262.390625 Z M 255.59375 262.390625 " fill-opacity="1" fill-rule="nonzero"/><path fill="#1086f4" d="M 219.558594 311.582031 C 218.390625 311.582031 217.441406 312.535156 217.441406 313.703125 C 217.441406 314.871094 218.390625 315.820312 219.558594 315.820312 C 220.726562 315.820312 221.675781 314.871094 221.675781 313.703125 C 221.675781 312.535156 220.726562 311.582031 219.558594 311.582031 Z M 219.558594 311.582031 " fill-opacity="1" fill-rule="nonzero"/><path fill="#1086f4" d="M 338.457031 180.511719 C 338.566406 180.96875 338.582031 181.425781 338.507812 181.886719 C 338.433594 182.347656 338.273438 182.777344 338.027344 183.175781 C 337.78125 183.574219 337.46875 183.90625 337.089844 184.179688 C 336.710938 184.453125 336.292969 184.644531 335.839844 184.753906 C 335.382812 184.859375 334.925781 184.875 334.464844 184.800781 C 334.003906 184.726562 333.574219 184.566406 333.175781 184.320312 C 332.777344 184.074219 332.441406 183.761719 332.171875 183.382812 C 331.898438 183.003906 331.707031 182.585938 331.597656 182.132812 C 331.492188 181.675781 331.476562 181.21875 331.550781 180.757812 C 331.625 180.296875 331.785156 179.867188 332.03125 179.46875 C 332.277344 179.074219 332.589844 178.738281 332.96875 178.464844 C 333.347656 178.191406 333.765625 178 334.21875 177.894531 C 334.675781 177.785156 335.132812 177.769531 335.59375 177.84375 C 336.054688 177.917969 336.484375 178.078125 336.882812 178.324219 C 337.277344 178.570312 337.613281 178.882812 337.886719 179.261719 C 338.160156 179.640625 338.351562 180.058594 338.457031 180.511719 Z M 338.457031 180.511719 " fill-opacity="1" fill-rule="nonzero"/><path fill="#1086f4" d="M 313.613281 143.96875 C 313.71875 144.425781 313.738281 144.882812 313.660156 145.34375 C 313.585938 145.804688 313.425781 146.234375 313.179688 146.632812 C 312.933594 147.03125 312.625 147.363281 312.242188 147.636719 C 311.863281 147.910156 311.449219 148.101562 310.992188 148.210938 C 310.539062 148.316406 310.082031 148.332031 309.621094 148.257812 C 309.15625 148.183594 308.730469 148.023438 308.332031 147.777344 C 307.933594 147.53125 307.597656 147.21875 307.324219 146.839844 C 307.050781 146.460938 306.863281 146.042969 306.753906 145.589844 C 306.648438 145.132812 306.628906 144.675781 306.707031 144.214844 C 306.78125 143.753906 306.941406 143.324219 307.1875 142.925781 C 307.433594 142.53125 307.746094 142.195312 308.125 141.921875 C 308.503906 141.648438 308.917969 141.457031 309.375 141.351562 C 309.828125 141.242188 310.289062 141.226562 310.75 141.300781 C 311.210938 141.375 311.640625 141.535156 312.035156 141.78125 C 312.433594 142.027344 312.769531 142.339844 313.042969 142.71875 C 313.316406 143.097656 313.507812 143.515625 313.613281 143.96875 Z M 313.613281 143.96875 " fill-opacity="1" fill-rule="nonzero"/><path fill="#1086f4" d="M 214.851562 40.152344 C 214.960938 40.609375 214.976562 41.066406 214.902344 41.527344 C 214.828125 41.988281 214.667969 42.417969 214.421875 42.816406 C 214.175781 43.214844 213.863281 43.546875 213.484375 43.820312 C 213.105469 44.09375 212.6875 44.285156 212.234375 44.390625 C 211.777344 44.5 211.320312 44.515625 210.859375 44.441406 C 210.398438 44.367188 209.96875 44.207031 209.570312 43.960938 C 209.171875 43.714844 208.839844 43.402344 208.566406 43.023438 C 208.292969 42.644531 208.101562 42.226562 207.992188 41.773438 C 207.886719 41.316406 207.871094 40.859375 207.945312 40.398438 C 208.019531 39.9375 208.179688 39.507812 208.425781 39.109375 C 208.671875 38.714844 208.984375 38.378906 209.363281 38.105469 C 209.742188 37.832031 210.160156 37.640625 210.613281 37.535156 C 211.070312 37.425781 211.527344 37.410156 211.988281 37.484375 C 212.449219 37.558594 212.878906 37.71875 213.277344 37.964844 C 213.671875 38.210938 214.007812 38.523438 214.28125 38.902344 C 214.554688 39.28125 214.746094 39.699219 214.851562 40.152344 Z M 214.851562 40.152344 " fill-opacity="1" fill-rule="nonzero"/><path fill="#1086f4" d="M 176.308594 40.152344 C 176.417969 40.605469 176.433594 41.0625 176.359375 41.527344 C 176.28125 41.988281 176.121094 42.417969 175.878906 42.8125 C 175.632812 43.210938 175.320312 43.546875 174.941406 43.820312 C 174.5625 44.09375 174.144531 44.28125 173.6875 44.390625 C 173.234375 44.496094 172.777344 44.515625 172.316406 44.4375 C 171.855469 44.363281 171.425781 44.203125 171.027344 43.957031 C 170.628906 43.710938 170.292969 43.398438 170.019531 43.019531 C 169.746094 42.640625 169.558594 42.226562 169.449219 41.769531 C 169.34375 41.316406 169.328125 40.859375 169.402344 40.394531 C 169.476562 39.933594 169.636719 39.507812 169.882812 39.109375 C 170.128906 38.710938 170.441406 38.375 170.820312 38.101562 C 171.199219 37.828125 171.617188 37.640625 172.070312 37.53125 C 172.523438 37.425781 172.984375 37.40625 173.445312 37.484375 C 173.90625 37.558594 174.335938 37.71875 174.734375 37.964844 C 175.128906 38.210938 175.464844 38.523438 175.738281 38.902344 C 176.011719 39.28125 176.203125 39.695312 176.308594 40.152344 Z M 176.308594 40.152344 " fill-opacity="1" fill-rule="nonzero"/><path fill="#1086f4" d="M 366.878906 149.484375 C 366.988281 149.941406 367.003906 150.398438 366.929688 150.859375 C 366.855469 151.320312 366.695312 151.75 366.449219 152.148438 C 366.203125 152.546875 365.890625 152.882812 365.511719 153.15625 C 365.132812 153.425781 364.714844 153.617188 364.261719 153.726562 C 363.804688 153.832031 363.347656 153.847656 362.886719 153.773438 C 362.425781 153.699219 361.996094 153.539062 361.597656 153.292969 C 361.199219 153.046875 360.867188 152.734375 360.59375 152.355469 C 360.320312 151.976562 360.128906 151.558594 360.023438 151.105469 C 359.914062 150.648438 359.898438 150.191406 359.972656 149.730469 C 360.046875 149.269531 360.207031 148.839844 360.453125 148.441406 C 360.699219 148.046875 361.011719 147.710938 361.390625 147.4375 C 361.769531 147.164062 362.1875 146.972656 362.640625 146.867188 C 363.097656 146.757812 363.554688 146.742188 364.015625 146.816406 C 364.476562 146.890625 364.90625 147.050781 365.304688 147.296875 C 365.703125 147.542969 366.035156 147.855469 366.308594 148.234375 C 366.582031 148.613281 366.773438 149.03125 366.878906 149.484375 Z M 366.878906 149.484375 " fill-opacity="1" fill-rule="nonzero"/><path fill="#1086f4" d="M 325.671875 89.507812 C 326.507812 90.601562 328.078125 90.804688 329.167969 89.96875 C 330.253906 89.132812 330.464844 87.5625 329.628906 86.472656 C 328.792969 85.378906 327.21875 85.175781 326.132812 86.011719 C 325.039062 86.847656 324.835938 88.421875 325.671875 89.507812 Z M 325.671875 89.507812 " fill-opacity="1" fill-rule="nonzero"/><path fill="#1086f4" d="M 275.445312 61.21875 C 274.351562 62.054688 274.148438 63.625 274.984375 64.714844 C 275.820312 65.800781 277.390625 66.011719 278.480469 65.175781 C 279.574219 64.339844 279.777344 62.765625 278.941406 61.679688 C 278.105469 60.585938 276.535156 60.382812 275.445312 61.21875 Z M 275.445312 61.21875 " fill-opacity="1" fill-rule="nonzero"/></svg>